<?xml version="1.0" encoding="UTF-8"?>
<svg width="30px" height="22px" viewBox="0 0 30 22" version="1.1" xmlns="http://www.w3.org/2000/svg" xmlns:xlink="http://www.w3.org/1999/xlink">
    <title>Untitled 3</title>
    <g id="Page-1" stroke="none" stroke-width="1" fill="none" fill-rule="evenodd">
        <g id="add.row.plus" transform="translate(0.4141, 0.3653)" fill="#000000" fill-rule="nonzero">
            <g id="macwindow.badge.plus" transform="translate(14.5, 10.5) scale(-1, 1) rotate(-180) translate(-14.5, -10.5)translate(0, 0)">
                <rect id="Rectangle" opacity="0" x="0" y="0" width="29" height="21"></rect>
                <path d="M28.1211,7.1826 L28.1211,8.4187785 C28.1211,11.0554785 26.705,12.5398785 24.2441,12.5398785 L11.6875667,12.5398785 C11.6923199,12.4658522 11.6923199,12.2748141 11.6875667,11.966764 C11.6480567,11.5767 11.5661474,11.2436381 11.4418388,10.9675785 C16.5494039,10.9675785 20.2917175,10.9675785 22.6687797,10.9675785 C22.9624286,10.9675785 23.4029021,10.9675785 23.9902,10.9675785 C25.6113,10.9675785 26.5488,10.0398785 26.5488,8.4187785 L26.5488,7.1826 C26.5488,5.5615 25.6113,4.624 23.9902,4.624 L9.22457,4.624 C7.60348,4.624 6.66598,5.5615 6.66598,7.1826 L6.66598,7.3242 C6.41102,7.2865 6.14971,7.2698 5.88473,7.2698 C5.61642,7.2698 5.35182,7.287 5.09371,7.3258 L5.09371,7.1826 C5.09371,4.54588 6.58785,3.05174 9.21481,3.05174 L24.2441,3.05174 C26.705,3.05174 28.1211,4.54588 28.1211,7.1826 Z" id="Path" fill-opacity="0.85"></path>
                <path d="M10.8457,13.0664 C10.8457,15.7812 8.57028,18.0273 5.88473,18.0273 C3.16012,18.0273 0.92379,15.8008 0.92379,13.0664 C0.92379,10.3516 3.16012,8.1055 5.88473,8.1055 C8.60934,8.1055 10.8457,10.3516 10.8457,13.0664 Z M5.28902,10.5664 L5.28902,12.4707 L3.37496,12.4707 C3.0234,12.4707 2.77926,12.7051 2.77926,13.0664 C2.77926,13.4277 3.0234,13.6621 3.37496,13.6621 L5.28902,13.6621 L5.28902,15.5762 C5.28902,15.9375 5.5234,16.1719 5.88473,16.1719 C6.24606,16.1719 6.48043,15.9375 6.48043,15.5762 L6.48043,13.6621 L8.38473,13.6621 C8.74606,13.6621 8.9902,13.4277 8.9902,13.0664 C8.9902,12.7051 8.74606,12.4707 8.38473,12.4707 L6.48043,12.4707 L6.48043,10.5664 C6.48043,10.2051 6.24606,9.9609 5.88473,9.9609 C5.5234,9.9609 5.28902,10.2051 5.28902,10.5664 Z" id="Shape" fill-opacity="0.85"></path>
            </g>
        </g>
    </g>
</svg>