<?xml version="1.0" encoding="UTF-8"?>
<svg width="26px" height="27px" viewBox="0 0 26 27" version="1.1" xmlns="http://www.w3.org/2000/svg" xmlns:xlink="http://www.w3.org/1999/xlink">
    <title>Untitled 2</title>
    <g id="Page-1" stroke="none" stroke-width="1" fill="none" fill-rule="evenodd" fill-opacity="0.85">
        <g id="duplicate-page" fill="#FFFFFF" fill-rule="nonzero">
            <g id="Group">
                <path d="M13.8549318,5.88619771 L19.0963479,11.1193913 C19.8572976,11.8843236 20,12.4067345 20,13.6100277 L20,22.0801727 C20,24.0205153 19.020175,25 17.0510764,25 L10.0685934,25 C10.3495174,24.5367173 10.563912,24.0322645 10.6973607,23.4981044 L16.9750009,23.4981044 C17.9643719,23.4981044 18.4684572,22.9850546 18.4684572,22.0521847 L18.4684572,13.6753649 L13.0463497,13.6753649 C11.8572927,13.6753649 11.2580399,13.096978 11.2580399,11.9216727 L11.2580399,6.50186698 L7.02496988,6.50186698 C6.03567682,6.50186698 5.53151355,7.03358179 5.53151355,7.95709047 L5.53151355,16.0595036 C5.28316264,16.0233963 5.02862632,16.007444 4.77051515,16.007444 C4.50916029,16.007444 4.25141926,16.0237783 4,16.0609365 L4,7.92910246 C4,5.98880766 4.9893028,5 6.94887491,5 L11.4672719,5 C12.5327184,5 13.1319711,5.15858597 13.8549318,5.88619771 Z M12.6944153,11.7443835 C12.6944153,12.1174933 12.8371177,12.2667945 13.2175926,12.2667945 L18.1736038,12.2667945 L12.6944153,6.79104135 L12.6944153,11.7443835 Z" id="Shape"></path>
                <path d="M19.8549318,0.88619771 L25.0963479,6.11939129 C25.8572976,6.88432356 26,7.40673451 26,8.61002773 L26,17.0801727 C26,19.0205153 25.020175,20 23.0510764,20 L20,20 C20,20 20,18.4981044 20,18.4981044 L22.9750009,18.4981044 C23.9643719,18.4981044 24.4684572,17.9850546 24.4684572,17.0521847 L24.4684572,8.67536492 L19.0463497,8.67536492 C17.8572927,8.67536492 17.2580399,8.09697796 17.2580399,6.92167275 L17.2580399,1.50186698 L13.0249699,1.50186698 C12.0356768,1.50186698 11.5315136,2.03358179 11.5315136,2.95709047 L11.5315136,5 C11.5315136,5.00143283 10,5 10,5 L10,2.92910246 C10,0.988807663 10.9893028,0 12.9488749,0 L17.4672719,0 C18.5327184,0 19.1319711,0.158585966 19.8549318,0.88619771 Z M18.6944153,6.74438353 C18.6944153,7.11749327 18.8371177,7.26679448 19.2175926,7.26679448 L24.1736038,7.26679448 L18.6944153,1.79104135 L18.6944153,6.74438353 Z" id="Shape-Copy"></path>
                <path d="M10,21.9999496 C10,24.7263427 7.7066714,27 4.99998488,27 C2.25393095,27 0,24.7459962 0,21.9999496 C0,19.253903 2.25393095,17 4.99998488,17 C7.74603882,17 10,19.253903 10,21.9999496 Z M4.39958637,19.4704946 L4.39958637,21.3897842 L2.47046184,21.3897842 C2.1161349,21.3897842 1.8700734,21.6358056 1.8700734,21.9999496 C1.8700734,22.3641944 2.1161349,22.6003386 2.47046184,22.6003386 L4.39958637,22.6003386 L4.39958637,24.5295054 C4.39958637,24.883873 4.63581105,25.1298945 4.99998488,25.1298945 C5.36415872,25.1298945 5.60037332,24.883873 5.60037332,24.5295054 L5.60037332,22.6003386 L7.51966103,22.6003386 C7.88383487,22.6003386 8.12989636,22.3641944 8.12989636,21.9999496 C8.12989636,21.6358056 7.88383487,21.3897842 7.51966103,21.3897842 L5.60037332,21.3897842 L5.60037332,19.4704946 C5.60037332,19.116127 5.36415872,18.8701055 4.99998488,18.8701055 C4.63581105,18.8701055 4.39958637,19.116127 4.39958637,19.4704946 Z" id="Shape"></path>
            </g>
        </g>
    </g>
</svg>