<?xml version="1.0" encoding="UTF-8"?>
<svg width="21px" height="25px" viewBox="0 0 21 25" version="1.1" xmlns="http://www.w3.org/2000/svg" xmlns:xlink="http://www.w3.org/1999/xlink">
    <title>Untitled</title>
    <g id="Page-1" stroke="none" stroke-width="1" fill="none" fill-rule="evenodd">
        <g id="document.on.document" fill="#000000" fill-rule="nonzero">
            <rect id="Rectangle" opacity="0" x="0" y="0" width="20.332" height="24.5996"></rect>
            <path d="M14.0625,0.976562 L18.9941,5.98633 C19.7266,6.73828 19.9707,7.5 19.9707,8.70117 L19.9707,16.6309 C19.9707,18.6621 18.9551,19.6973 16.9434,19.6973 L15.2344,19.6973 L15.2344,18.125 L16.8555,18.125 C17.8711,18.125 18.3984,17.5781 18.3984,16.6016 L18.3984,8.25195 L13.8281,8.25195 C12.7051,8.25195 12.1582,7.71484 12.1582,6.58203 L12.1582,1.57227 L7.8418,1.57227 C6.82617,1.57227 6.30859,2.12891 6.30859,3.0957 L6.30859,4.87305 L4.73633,4.87305 L4.73633,3.06641 C4.73633,1.03516 5.75195,0 7.76367,0 L11.5039,0 C12.5488,0 13.3691,0.263672 14.0625,0.976562 Z M13.5742,6.34766 C13.5742,6.68945 13.7109,6.83594 14.0527,6.83594 L17.9883,6.83594 L13.5742,2.34375 L13.5742,6.34766 Z" id="Shape" fill-opacity="0.85"></path>
            <path d="M0,21.5039 C0,23.5449 1.00586,24.5703 3.02734,24.5703 L12.207,24.5703 C14.2285,24.5703 15.2344,23.5352 15.2344,21.5039 L15.2344,13.877 C15.2344,12.627 15.0879,12.0801 14.3066,11.2793 L8.92578,5.80078 C8.18359,5.03906 7.56836,4.87305 6.47461,4.87305 L3.02734,4.87305 C1.01562,4.87305 0,5.89844 0,7.93945 L0,21.5039 Z M1.57227,21.4746 L1.57227,7.95898 C1.57227,7.00195 2.08984,6.44531 3.10547,6.44531 L6.30859,6.44531 L6.30859,12.1094 C6.30859,13.3398 6.93359,13.9551 8.14453,13.9551 L13.6621,13.9551 L13.6621,21.4746 C13.6621,22.4512 13.1348,22.998 12.1289,22.998 L3.0957,22.998 C2.08984,22.998 1.57227,22.4512 1.57227,21.4746 Z M8.33008,12.4805 C7.93945,12.4805 7.7832,12.3242 7.7832,11.9336 L7.7832,6.80664 L13.3594,12.4805 L8.33008,12.4805 Z" id="Shape" fill-opacity="0.85"></path>
        </g>
        <g id="Group-2" transform="translate(3.5, 15.9917)" stroke="#262626" stroke-linecap="round" stroke-linejoin="round" stroke-width="1.65">
            <g id="Group" transform="translate(0, 2.0083)">
                <line x1="0" y1="0.5" x2="5" y2="0.5" id="Path"></line>
            </g>
            <g id="Group-Copy" transform="translate(2.5, 2.5083) rotate(91) translate(-2.5, -2.5083)translate(0, 2.0083)">
                <line x1="-2.17885792e-15" y1="0.5" x2="5" y2="0.5" id="Path"></line>
            </g>
        </g>
    </g>
</svg>